<svg id="visual" viewBox="0 0 900 240" width="900" height="240" xmlns="http://www.w3.org/2000/svg" xmlns:xlink="http://www.w3.org/1999/xlink" version="1.1"><rect x="0" y="0" width="900" height="240" fill="#28262C"></rect><path d="M0 117L13.7 114.5C27.3 112 54.7 107 82 105.7C109.3 104.3 136.7 106.7 163.8 109.5C191 112.3 218 115.7 245.2 119.7C272.3 123.7 299.7 128.3 327 120.3C354.3 112.3 381.7 91.7 409 85.2C436.3 78.7 463.7 86.3 491 96.3C518.3 106.3 545.7 118.7 573 116.2C600.3 113.7 627.7 96.3 654.8 93.5C682 90.7 709 102.3 736.2 107.2C763.3 112 790.7 110 818 118C845.3 126 872.7 144 886.3 153L900 162L900 241L886.3 241C872.7 241 845.3 241 818 241C790.7 241 763.3 241 736.2 241C709 241 682 241 654.8 241C627.7 241 600.3 241 573 241C545.7 241 518.3 241 491 241C463.7 241 436.3 241 409 241C381.7 241 354.3 241 327 241C299.7 241 272.3 241 245.2 241C218 241 191 241 163.8 241C136.7 241 109.3 241 82 241C54.7 241 27.3 241 13.7 241L0 241Z" fill="#8d58ff"></path><path d="M0 139L13.7 135C27.3 131 54.7 123 82 125.3C109.3 127.7 136.7 140.3 163.8 149.2C191 158 218 163 245.2 168.8C272.3 174.7 299.7 181.3 327 180.8C354.3 180.3 381.7 172.7 409 173.2C436.3 173.7 463.7 182.3 491 184.2C518.3 186 545.7 181 573 167.5C600.3 154 627.7 132 654.8 121.5C682 111 709 112 736.2 112.5C763.3 113 790.7 113 818 126.3C845.3 139.7 872.7 166.3 886.3 179.7L900 193L900 241L886.3 241C872.7 241 845.3 241 818 241C790.7 241 763.3 241 736.2 241C709 241 682 241 654.8 241C627.7 241 600.3 241 573 241C545.7 241 518.3 241 491 241C463.7 241 436.3 241 409 241C381.7 241 354.3 241 327 241C299.7 241 272.3 241 245.2 241C218 241 191 241 163.8 241C136.7 241 109.3 241 82 241C54.7 241 27.3 241 13.7 241L0 241Z" fill="#6333b2"></path><path d="M0 153L13.7 163.3C27.3 173.7 54.7 194.3 82 204.3C109.3 214.3 136.7 213.7 163.8 207C191 200.3 218 187.7 245.2 185C272.3 182.3 299.7 189.7 327 195.7C354.3 201.7 381.7 206.3 409 209.3C436.3 212.3 463.7 213.7 491 209C518.3 204.3 545.7 193.7 573 187.5C600.3 181.3 627.7 179.7 654.8 176.7C682 173.7 709 169.3 736.2 165.2C763.3 161 790.7 157 818 164.8C845.3 172.7 872.7 192.3 886.3 202.2L900 212L900 241L886.3 241C872.7 241 845.3 241 818 241C790.7 241 763.3 241 736.2 241C709 241 682 241 654.8 241C627.7 241 600.3 241 573 241C545.7 241 518.3 241 491 241C463.7 241 436.3 241 409 241C381.7 241 354.3 241 327 241C299.7 241 272.3 241 245.2 241C218 241 191 241 163.8 241C136.7 241 109.3 241 82 241C54.7 241 27.3 241 13.7 241L0 241Z" fill="#39126c"></path></svg>