<svg id="visual" viewBox="0 0 900 240" width="900" height="240" xmlns="http://www.w3.org/2000/svg" xmlns:xlink="http://www.w3.org/1999/xlink" version="1.1"><rect x="0" y="0" width="900" height="240" fill="#28262C"></rect><path d="M0 92L12.5 85.3C25 78.7 50 65.3 75 69.3C100 73.3 125 94.7 150 104.7C175 114.7 200 113.3 225 109C250 104.7 275 97.3 300 93.2C325 89 350 88 375 91.8C400 95.7 425 104.3 450 100C475 95.7 500 78.3 525 68C550 57.7 575 54.3 600 54.8C625 55.3 650 59.7 675 63.2C700 66.7 725 69.3 750 67C775 64.7 800 57.3 825 56C850 54.7 875 59.3 887.5 61.7L900 64L900 241L887.5 241C875 241 850 241 825 241C800 241 775 241 750 241C725 241 700 241 675 241C650 241 625 241 600 241C575 241 550 241 525 241C500 241 475 241 450 241C425 241 400 241 375 241C350 241 325 241 300 241C275 241 250 241 225 241C200 241 175 241 150 241C125 241 100 241 75 241C50 241 25 241 12.5 241L0 241Z" fill="#8d58ff"></path><path d="M0 141L12.5 140.5C25 140 50 139 75 138C100 137 125 136 150 131.5C175 127 200 119 225 126C250 133 275 155 300 153.3C325 151.7 350 126.3 375 112.2C400 98 425 95 450 95.5C475 96 500 100 525 104.8C550 109.7 575 115.3 600 113.2C625 111 650 101 675 96.8C700 92.7 725 94.3 750 95.3C775 96.3 800 96.7 825 96C850 95.3 875 93.7 887.5 92.8L900 92L900 241L887.5 241C875 241 850 241 825 241C800 241 775 241 750 241C725 241 700 241 675 241C650 241 625 241 600 241C575 241 550 241 525 241C500 241 475 241 450 241C425 241 400 241 375 241C350 241 325 241 300 241C275 241 250 241 225 241C200 241 175 241 150 241C125 241 100 241 75 241C50 241 25 241 12.5 241L0 241Z" fill="#6333b2"></path><path d="M0 208L12.5 198.3C25 188.7 50 169.3 75 167.3C100 165.3 125 180.7 150 189.3C175 198 200 200 225 196C250 192 275 182 300 172.3C325 162.7 350 153.3 375 157.3C400 161.3 425 178.7 450 184C475 189.3 500 182.7 525 184.3C550 186 575 196 600 192.2C625 188.3 650 170.7 675 160.2C700 149.7 725 146.3 750 152.5C775 158.7 800 174.3 825 175.5C850 176.7 875 163.3 887.5 156.7L900 150L900 241L887.5 241C875 241 850 241 825 241C800 241 775 241 750 241C725 241 700 241 675 241C650 241 625 241 600 241C575 241 550 241 525 241C500 241 475 241 450 241C425 241 400 241 375 241C350 241 325 241 300 241C275 241 250 241 225 241C200 241 175 241 150 241C125 241 100 241 75 241C50 241 25 241 12.5 241L0 241Z" fill="#39126c"></path></svg>